<svg xmlns="http://www.w3.org/2000/svg" viewBox="0 0 1113.14 254.94"><title>neyberos</title><path d="M261.05,146A125.53,125.53,0,1,1,135.53,20.42,125.52,125.52,0,0,1,261.05,146" transform="translate(-10 -16.53)" style="fill:#5e1f63"/><path d="M252.16,183.86q.53-6.86.54-13.48c-19.88-6.74-36.09-8-59.72-8.76,21.1-7.43,36.5-15.51,57.44-19a134.93,134.93,0,0,0-24.52-58c-21.05-7.76-44.73-12.16-70.21-13a384,384,0,0,1,45.06-12.87C173.38,37.2,136.55,24.09,93.5,21.51A212.86,212.86,0,0,0,82.26,74.24,171.92,171.92,0,0,0,82.58,105c11.67-4.63,23.42-8.7,35.17-12.15q-17.32,11.91-33.24,25.28a133.61,133.61,0,0,0,36.43,69.74q17.09-7.4,34.43-13.12c-9.05,6.63-17.78,13.59-26.18,20.8,27.77,23.85,66.29,38.31,111.73,41a212.86,212.86,0,0,0,11.24-52.73" transform="translate(-10 -16.53)" style="fill:#5e7c47"/><path d="M298.81,141c-1-4.66-5.67-20.43-6.94-24.85-15.12-4.66-24.83-.21-44.08,4,18.9-13.14,17.48-10.73,37.36-19.83A143.7,143.7,0,0,0,243.9,49c-23.25-2.06-48.14-.07-73.8,6a388.14,388.14,0,0,1,41.23-25c-33.57-14.25-74.11-17.4-117.81-8.35a221.08,221.08,0,0,0,4.07,55.75,180.18,180.18,0,0,0,9.23,30.68q15.45-11.68,31.56-21.65c-9.22,11-17.84,22.5-25.84,34.24a142.29,142.29,0,0,0,56.54,59.87q14.91-12,30.55-22.42Q189,171.71,179.54,186c34.61,16.33,77.22,20.37,123.34,10.82A220.73,220.73,0,0,0,298.81,141" transform="translate(-10 -16.53)" style="fill:#9fcc7a"/><path d="M150.34,46.22A14.82,14.82,0,1,1,135.53,31.4a14.81,14.81,0,0,1,14.81,14.82" transform="translate(-10 -16.53)" style="fill:#fff"/><path d="M142.93,46.22a7.41,7.41,0,1,1-7.4-7.41,7.4,7.4,0,0,1,7.4,7.41" transform="translate(-10 -16.53)" style="fill:#5e1f63"/><path d="M412.8,150.8H392.28L358,98.84v52H337.44V66.56H358l34.32,52.2V66.56H412.8Z" transform="translate(-10 -16.53)" style="fill:#5e1f63"/><path d="M490.44,122.24H444q.48,6.24,4,9.54a12.28,12.28,0,0,0,8.7,3.3q7.68,0,10.68-6.48h21.84a30,30,0,0,1-6.06,11.88,30.34,30.34,0,0,1-11,8.28,35.27,35.27,0,0,1-14.76,3,35.92,35.92,0,0,1-17.52-4.2,29.87,29.87,0,0,1-12-12,37,37,0,0,1-4.32-18.24,37.47,37.47,0,0,1,4.26-18.24,29.49,29.49,0,0,1,11.94-12,36.17,36.17,0,0,1,17.64-4.2A35.81,35.81,0,0,1,474.72,87,29.3,29.3,0,0,1,486.54,98.6a35.33,35.33,0,0,1,4.26,17.64A52.38,52.38,0,0,1,490.44,122.24Zm-20.64-11.4a10.55,10.55,0,0,0-3.6-8.4,13.25,13.25,0,0,0-9-3.12,13,13,0,0,0-8.7,3,13.32,13.32,0,0,0-4.38,8.52Z" transform="translate(-10 -16.53)" style="fill:#5e1f63"/><path d="M567.12,83.84l-42,98.76H503l15.36-34.08L491.16,83.84h22.92l15.48,41.88,15.36-41.88Z" transform="translate(-10 -16.53)" style="fill:#5e1f63"/><path d="M603.36,85.76a25.86,25.86,0,0,1,12.36-2.88,27.73,27.73,0,0,1,15,4.2,29.09,29.09,0,0,1,10.62,12,40,40,0,0,1,3.9,18.12,40.4,40.4,0,0,1-3.9,18.18,29.44,29.44,0,0,1-10.62,12.12,27.43,27.43,0,0,1-15,4.26,25.86,25.86,0,0,1-12.36-2.82,21.81,21.81,0,0,1-8.28-7.5v9.36H574.56V62h20.52V93.32A21.12,21.12,0,0,1,603.36,85.76Zm16.74,19.38a14.07,14.07,0,0,0-10.5-4.38,13.84,13.84,0,0,0-10.38,4.44Q595,109.64,595,117.32t4.26,12.12a14.36,14.36,0,0,0,20.82-.06q4.32-4.5,4.32-12.18T620.1,105.14Z" transform="translate(-10 -16.53)" style="fill:#5e1f63"/><path d="M718.8,122.24H672.36q.48,6.24,4,9.54a12.28,12.28,0,0,0,8.7,3.3q7.68,0,10.68-6.48H717.6a30,30,0,0,1-6.06,11.88,30.34,30.34,0,0,1-11,8.28,35.27,35.27,0,0,1-14.76,3,35.92,35.92,0,0,1-17.52-4.2,29.87,29.87,0,0,1-12-12A37,37,0,0,1,652,117.32a37.47,37.47,0,0,1,4.26-18.24,29.49,29.49,0,0,1,11.94-12,36.17,36.17,0,0,1,17.64-4.2A35.81,35.81,0,0,1,703.08,87,29.3,29.3,0,0,1,714.9,98.6a35.33,35.33,0,0,1,4.26,17.64A52.38,52.38,0,0,1,718.8,122.24Zm-20.64-11.4a10.55,10.55,0,0,0-3.6-8.4,13.25,13.25,0,0,0-9-3.12,13,13,0,0,0-8.7,3,13.32,13.32,0,0,0-4.38,8.52Z" transform="translate(-10 -16.53)" style="fill:#5e1f63"/><path d="M759.48,86.3a23.21,23.21,0,0,1,12-3.18v21.72h-5.64c-5.13,0-9,1.1-11.52,3.3s-3.84,6.06-3.84,11.58V150.8H730v-67h20.52V95A27.07,27.07,0,0,1,759.48,86.3Z" transform="translate(-10 -16.53)" style="fill:#5e1f63"/><path d="M792.42,147.56a30.69,30.69,0,0,1-12.36-12,35.86,35.86,0,0,1-4.5-18.24,35.47,35.47,0,0,1,4.56-18.18A30.88,30.88,0,0,1,792.6,87.08a39.65,39.65,0,0,1,35.52,0A31,31,0,0,1,840.6,99.14a35.67,35.67,0,0,1,4.56,18.18,35.3,35.3,0,0,1-4.62,18.18,31.3,31.3,0,0,1-12.6,12.06,37.72,37.72,0,0,1-17.82,4.2A36.9,36.9,0,0,1,792.42,147.56Zm27.72-17.88q4.14-4.32,4.14-12.36t-4-12.36a13.63,13.63,0,0,0-19.85-.06c-2.65,2.84-4,7-4,12.42s1.29,9.48,3.89,12.36a12.63,12.63,0,0,0,9.79,4.32A13.38,13.38,0,0,0,820.14,129.68Z" transform="translate(-10 -16.53)" style="fill:#5e1f63"/><path d="M867.71,148.76a26.54,26.54,0,0,1-10.79-8.22,21.56,21.56,0,0,1-4.45-11.7h20.28a7.84,7.84,0,0,0,3.25,5.64,11.44,11.44,0,0,0,7.08,2.16,10.09,10.09,0,0,0,5.93-1.5,4.6,4.6,0,0,0,2.11-3.9,4.51,4.51,0,0,0-3-4.26,61.15,61.15,0,0,0-9.73-3.06,91.26,91.26,0,0,1-12-3.54,20.63,20.63,0,0,1-8.27-5.88q-3.5-4-3.49-10.86a18.44,18.44,0,0,1,3.18-10.5,21.41,21.41,0,0,1,9.36-7.5,35.86,35.86,0,0,1,14.71-2.76q12.58,0,19.85,6.24a24.33,24.33,0,0,1,8.35,16.56h-19a8.22,8.22,0,0,0-3.07-5.52,10.61,10.61,0,0,0-6.78-2,9.39,9.39,0,0,0-5.52,1.38,4.41,4.41,0,0,0-1.92,3.78q0,2.88,3.06,4.32a49.24,49.24,0,0,0,9.54,2.88,104.37,104.37,0,0,1,12.12,3.78,20.91,20.91,0,0,1,8.22,6q3.54,4.14,3.66,11.1a17.62,17.62,0,0,1-3.3,10.5,21.83,21.83,0,0,1-9.48,7.26,36.26,36.26,0,0,1-14.34,2.64A38.49,38.49,0,0,1,867.71,148.76Z" transform="translate(-10 -16.53)" style="fill:#5e1f63"/><path d="M930.85,149.65a5.95,5.95,0,1,1,8.45,0,5.7,5.7,0,0,1-4.18,1.72A5.79,5.79,0,0,1,930.85,149.65Z" transform="translate(-10 -16.53)" style="fill:#5e7c47"/><path d="M949.18,115.91a20,20,0,0,1,7.83-8.16,22.67,22.67,0,0,1,11.48-2.87q8.21,0,13.57,3.89a19.23,19.23,0,0,1,7.26,11.12H979.23a10.66,10.66,0,0,0-3.93-5.25,11.64,11.64,0,0,0-6.81-1.89,11.28,11.28,0,0,0-9.14,4.06q-3.4,4.06-3.41,11.36t3.41,11.4a11.26,11.26,0,0,0,9.14,4.1q8.12,0,10.74-7.14h10.09a20.2,20.2,0,0,1-7.38,10.95,21.82,21.82,0,0,1-13.45,4.06A22.39,22.39,0,0,1,957,148.63a20.36,20.36,0,0,1-7.83-8.2,28,28,0,0,1,0-24.52Z" transform="translate(-10 -16.53)" style="fill:#5e7c47"/><path d="M1005.55,148.63a21,21,0,0,1-8.12-8.2,24.85,24.85,0,0,1-2.95-12.26,24.19,24.19,0,0,1,3-12.22,20.93,20.93,0,0,1,8.28-8.2,25.39,25.39,0,0,1,23.45,0,20.93,20.93,0,0,1,8.28,8.2,24.3,24.3,0,0,1,3,12.22,23.76,23.76,0,0,1-3.12,12.22,21.62,21.62,0,0,1-8.49,8.24,24.47,24.47,0,0,1-11.85,2.91A23.16,23.16,0,0,1,1005.55,148.63Zm18.33-6.93a13.12,13.12,0,0,0,5.12-5.17,16.5,16.5,0,0,0,2-8.36,17.07,17.07,0,0,0-1.88-8.33,12.8,12.8,0,0,0-5-5.12,13.64,13.64,0,0,0-6.72-1.72,13.4,13.4,0,0,0-6.68,1.72,12.33,12.33,0,0,0-4.88,5.12,17.53,17.53,0,0,0-1.81,8.33q0,7.29,3.74,11.27a12.31,12.31,0,0,0,9.38,4A13.91,13.91,0,0,0,1023.88,141.7Z" transform="translate(-10 -16.53)" style="fill:#5e7c47"/><path d="M1114.08,107.09a16.07,16.07,0,0,1,6.64,6.56,21.33,21.33,0,0,1,2.42,10.5V150.8h-9.27V125.54q0-6.06-3-9.3a10.79,10.79,0,0,0-8.28-3.24,10.94,10.94,0,0,0-8.33,3.24q-3.07,3.24-3.07,9.3V150.8h-9.27V125.54q0-6.06-3-9.3a10.79,10.79,0,0,0-8.28-3.24,10.94,10.94,0,0,0-8.33,3.24q-3.06,3.24-3.07,9.3V150.8h-9.35V105.62h9.35v5.16a15.63,15.63,0,0,1,5.82-4.34,18.46,18.46,0,0,1,7.55-1.56,20.08,20.08,0,0,1,9.67,2.3,15.68,15.68,0,0,1,6.56,6.64,15.12,15.12,0,0,1,6.4-6.52,18.92,18.92,0,0,1,9.35-2.42A20.34,20.34,0,0,1,1114.08,107.09Z" transform="translate(-10 -16.53)" style="fill:#5e7c47"/><path d="M349.83,203.61a6.88,6.88,0,0,1-3,2.83,10.93,10.93,0,0,1-5.22,1.09H337V218h-4.22V192.25h8.88a11.2,11.2,0,0,1,5,1,7.13,7.13,0,0,1,3.07,2.75,7.56,7.56,0,0,1,1,3.89A7.73,7.73,0,0,1,349.83,203.61Zm-4.59-.61a4,4,0,0,0,1.19-3.09q0-4.22-4.78-4.22H337v8.4h4.66A5.12,5.12,0,0,0,345.24,203Z" transform="translate(-10 -16.53)" style="fill:#5e7c47"/><path d="M361.32,198.12a7.26,7.26,0,0,1,3.64-.87v4.36h-1.07a5.12,5.12,0,0,0-3.75,1.26c-.85.84-1.28,2.29-1.28,4.37V218h-4.22V197.58h4.22v3A6.64,6.64,0,0,1,361.32,198.12Z" transform="translate(-10 -16.53)" style="fill:#5e7c47"/><path d="M371.77,217a9.5,9.5,0,0,1-3.66-3.7,11.19,11.19,0,0,1-1.33-5.54,10.86,10.86,0,0,1,1.37-5.51,9.41,9.41,0,0,1,3.73-3.7,11.51,11.51,0,0,1,10.59,0,9.48,9.48,0,0,1,3.73,3.7,11,11,0,0,1,1.37,5.51,10.81,10.81,0,0,1-1.4,5.52,9.85,9.85,0,0,1-3.83,3.72A11.12,11.12,0,0,1,377,218.3,10.51,10.51,0,0,1,371.77,217Zm8.27-3.13a6,6,0,0,0,2.31-2.33,7.45,7.45,0,0,0,.89-3.78,7.59,7.59,0,0,0-.85-3.75,5.66,5.66,0,0,0-2.26-2.31,6.26,6.26,0,0,0-6.05,0,5.53,5.53,0,0,0-2.2,2.31,7.93,7.93,0,0,0-.81,3.75,7.15,7.15,0,0,0,1.68,5.09,5.56,5.56,0,0,0,4.24,1.8A6.26,6.26,0,0,0,380,213.86Z" transform="translate(-10 -16.53)" style="fill:#5e7c47"/><path d="M398.37,214.19l5.78-16.61h4.47L400.85,218h-5l-7.73-20.39h4.51Z" transform="translate(-10 -16.53)" style="fill:#5e7c47"/><path d="M411.88,194.1a2.7,2.7,0,0,1,1.92-4.62,2.56,2.56,0,0,1,1.89.77,2.77,2.77,0,0,1,0,3.85,2.57,2.57,0,0,1-1.89.78A2.61,2.61,0,0,1,411.88,194.1Zm4,3.48V218h-4.22V197.58Z" transform="translate(-10 -16.53)" style="fill:#5e7c47"/><path d="M435.87,198.25a7,7,0,0,1,3,3,9.64,9.64,0,0,1,1.07,4.73v12h-4.18v-11.4a5.93,5.93,0,0,0-1.36-4.2,4.9,4.9,0,0,0-3.74-1.46,5,5,0,0,0-3.76,1.46,5.89,5.89,0,0,0-1.38,4.2V218h-4.22V197.58h4.22v2.33a7,7,0,0,1,2.64-2,8.41,8.41,0,0,1,3.42-.7A9.07,9.07,0,0,1,435.87,198.25Z" transform="translate(-10 -16.53)" style="fill:#5e7c47"/><path d="M445,202.22a9,9,0,0,1,3.54-3.68,11.33,11.33,0,0,1,11.3.46,8.65,8.65,0,0,1,3.27,5h-4.55a4.85,4.85,0,0,0-1.77-2.37,5.24,5.24,0,0,0-3.07-.85,5.11,5.11,0,0,0-4.13,1.83,7.76,7.76,0,0,0-1.54,5.12,7.87,7.87,0,0,0,1.54,5.15,5.09,5.09,0,0,0,4.13,1.85,4.68,4.68,0,0,0,4.84-3.22h4.55a9.09,9.09,0,0,1-3.33,4.94,9.81,9.81,0,0,1-6.06,1.83,10.15,10.15,0,0,1-5.18-1.31,9.21,9.21,0,0,1-3.54-3.7,12.7,12.7,0,0,1,0-11.07Z" transform="translate(-10 -16.53)" style="fill:#5e7c47"/><path d="M467.38,194.1a2.7,2.7,0,0,1,1.92-4.62,2.56,2.56,0,0,1,1.89.77,2.77,2.77,0,0,1,0,3.85,2.57,2.57,0,0,1-1.89.78A2.61,2.61,0,0,1,467.38,194.1Zm4,3.48V218h-4.21V197.58Z" transform="translate(-10 -16.53)" style="fill:#5e7c47"/><path d="M476.65,202.24a9.4,9.4,0,0,1,3.47-3.68,9.29,9.29,0,0,1,4.87-1.31,8.91,8.91,0,0,1,4.2.94,8.52,8.52,0,0,1,2.87,2.35v-3h4.25V218h-4.25v-3a8.4,8.4,0,0,1-2.93,2.41,9.45,9.45,0,0,1-9-.39,9.52,9.52,0,0,1-3.46-3.78,11.46,11.46,0,0,1-1.28-5.49A11.18,11.18,0,0,1,476.65,202.24Zm14.54,1.85a6.13,6.13,0,0,0-2.28-2.37,6,6,0,0,0-3-.81,5.93,5.93,0,0,0-5.31,3.13,7.24,7.24,0,0,0-.87,3.64,7.58,7.58,0,0,0,.87,3.7,6.09,6.09,0,0,0,2.29,2.42,5.86,5.86,0,0,0,3,.84,6,6,0,0,0,3-.82,6.09,6.09,0,0,0,2.28-2.38,7.51,7.51,0,0,0,.87-3.69A7.39,7.39,0,0,0,491.19,204.09Z" transform="translate(-10 -16.53)" style="fill:#5e7c47"/><path d="M528.43,206.94a6.44,6.44,0,0,1,1.44,4.11,6.36,6.36,0,0,1-1,3.53,6.88,6.88,0,0,1-2.94,2.48,10.44,10.44,0,0,1-4.48.91H511.15V192.25H521a10.59,10.59,0,0,1,4.52.89,6.65,6.65,0,0,1,2.85,2.39,6,6,0,0,1,1,3.34,5.72,5.72,0,0,1-1.19,3.7,6.9,6.9,0,0,1-3.18,2.19A5.68,5.68,0,0,1,528.43,206.94Zm-13.06-3.89h5.21a5,5,0,0,0,3.24-.94,3.28,3.28,0,0,0,1.17-2.72,3.36,3.36,0,0,0-1.17-2.72,4.92,4.92,0,0,0-3.24-1h-5.21Zm9.06,10.44a3.56,3.56,0,0,0,1.22-2.89,3.73,3.73,0,0,0-1.29-3,5.12,5.12,0,0,0-3.44-1.11h-5.55v8h5.69A5,5,0,0,0,524.43,213.49Z" transform="translate(-10 -16.53)" style="fill:#5e7c47"/><path d="M534.18,202.24a9.3,9.3,0,0,1,8.34-5,8.85,8.85,0,0,1,4.2.94,8.43,8.43,0,0,1,2.87,2.35v-3h4.26V218h-4.26v-3a8.37,8.37,0,0,1-2.92,2.41,9,9,0,0,1-4.22,1,9,9,0,0,1-4.81-1.35,9.52,9.52,0,0,1-3.46-3.78,11.58,11.58,0,0,1-1.28-5.49A11.3,11.3,0,0,1,534.18,202.24Zm14.54,1.85a6.17,6.17,0,0,0-2.27-2.37A6,6,0,0,0,538.1,204a7.24,7.24,0,0,0-.87,3.64,7.58,7.58,0,0,0,.87,3.7,6.11,6.11,0,0,0,2.3,2.42,5.83,5.83,0,0,0,3,.84,6,6,0,0,0,3-.82,6.13,6.13,0,0,0,2.27-2.38,7.51,7.51,0,0,0,.87-3.69A7.39,7.39,0,0,0,548.72,204.09Z" transform="translate(-10 -16.53)" style="fill:#5e7c47"/><path d="M574,198.25a7,7,0,0,1,2.88,3,9.87,9.87,0,0,1,1.06,4.73v12h-4.19v-11.4a5.93,5.93,0,0,0-1.36-4.2,4.9,4.9,0,0,0-3.74-1.46,5,5,0,0,0-3.76,1.46,5.89,5.89,0,0,0-1.38,4.2V218h-4.22V190.59h4.22V200a7,7,0,0,1,2.72-2,9,9,0,0,1,3.6-.7A8.54,8.54,0,0,1,574,198.25Z" transform="translate(-10 -16.53)" style="fill:#5e7c47"/><path d="M586.74,217a9.46,9.46,0,0,1-3.67-3.7,11.29,11.29,0,0,1-1.33-5.54,11,11,0,0,1,1.37-5.51,9.44,9.44,0,0,1,3.74-3.7,11.49,11.49,0,0,1,10.58,0,9.5,9.5,0,0,1,3.74,3.7,11,11,0,0,1,1.37,5.51,10.72,10.72,0,0,1-1.41,5.52A9.78,9.78,0,0,1,597.3,217,11.08,11.08,0,0,1,592,218.3,10.48,10.48,0,0,1,586.74,217Zm8.27-3.13a6,6,0,0,0,2.31-2.33,7.55,7.55,0,0,0,.89-3.78,7.7,7.7,0,0,0-.85-3.75,5.66,5.66,0,0,0-2.26-2.31,6.16,6.16,0,0,0-3-.78,6.07,6.07,0,0,0-3,.78,5.41,5.41,0,0,0-2.2,2.31,7.93,7.93,0,0,0-.81,3.75,7.15,7.15,0,0,0,1.68,5.09,5.55,5.55,0,0,0,4.24,1.8A6.26,6.26,0,0,0,595,213.86Z" transform="translate(-10 -16.53)" style="fill:#5e7c47"/><path d="M613.25,198.12a7.26,7.26,0,0,1,3.64-.87v4.36h-1.07a5.16,5.16,0,0,0-3.76,1.26c-.85.84-1.27,2.29-1.27,4.37V218h-4.22V197.58h4.22v3A6.49,6.49,0,0,1,613.25,198.12Z" transform="translate(-10 -16.53)" style="fill:#5e7c47"/><path d="M639.09,197.58V218h-4.22v-2.41a6.75,6.75,0,0,1-2.6,2,8.34,8.34,0,0,1-3.43.72,9.1,9.1,0,0,1-4.31-1,7.11,7.11,0,0,1-3-3,9.53,9.53,0,0,1-1.1-4.73v-12h4.19v11.36a6,6,0,0,0,1.36,4.2,4.9,4.9,0,0,0,3.74,1.46,5,5,0,0,0,3.76-1.46,5.91,5.91,0,0,0,1.38-4.2V197.58Z" transform="translate(-10 -16.53)" style="fill:#5e7c47"/><path d="M644.36,202.22a9,9,0,0,1,3.54-3.68,11.33,11.33,0,0,1,11.3.46,8.66,8.66,0,0,1,3.28,5h-4.56a4.85,4.85,0,0,0-1.77-2.37,5.24,5.24,0,0,0-3.07-.85,5.12,5.12,0,0,0-4.13,1.83,7.76,7.76,0,0,0-1.53,5.12A7.87,7.87,0,0,0,649,212.9a5.11,5.11,0,0,0,4.13,1.85,4.68,4.68,0,0,0,4.84-3.22h4.56a9.2,9.2,0,0,1-3.33,4.94,9.84,9.84,0,0,1-6.07,1.83A10.15,10.15,0,0,1,647.9,217a9.21,9.21,0,0,1-3.54-3.7,12.7,12.7,0,0,1,0-11.07Z" transform="translate(-10 -16.53)" style="fill:#5e7c47"/><path d="M669.58,217a9.44,9.44,0,0,1-3.66-3.7,11.19,11.19,0,0,1-1.34-5.54,11,11,0,0,1,1.37-5.51,9.5,9.5,0,0,1,3.74-3.7,11.49,11.49,0,0,1,10.58,0,9.44,9.44,0,0,1,3.74,3.7,11,11,0,0,1,1.37,5.51,10.72,10.72,0,0,1-1.41,5.52,9.72,9.72,0,0,1-3.83,3.72,11.05,11.05,0,0,1-5.34,1.31A10.48,10.48,0,0,1,669.58,217Zm8.27-3.13a6,6,0,0,0,2.31-2.33,8.58,8.58,0,0,0,0-7.53,5.66,5.66,0,0,0-2.26-2.31,6.16,6.16,0,0,0-3-.78,6.07,6.07,0,0,0-3,.78,5.47,5.47,0,0,0-2.2,2.31,7.93,7.93,0,0,0-.81,3.75,7.15,7.15,0,0,0,1.68,5.09,5.55,5.55,0,0,0,4.24,1.8A6.26,6.26,0,0,0,677.85,213.86Z" transform="translate(-10 -16.53)" style="fill:#5e7c47"/><path d="M693.3,212.9l-4.48,10.21h-2.74l2.63-10.21Z" transform="translate(-10 -16.53)" style="fill:#5e7c47"/><path d="M719.68,218l-5.92-10.29h-3.22V218h-4.22V192.25h8.88a11,11,0,0,1,5,1,7.17,7.17,0,0,1,3.07,2.77,7.56,7.56,0,0,1,1,3.89,7.75,7.75,0,0,1-1.46,4.57,7.4,7.4,0,0,1-4.5,2.79L724.71,218Zm-9.14-13.66h4.66a4.88,4.88,0,0,0,3.57-1.18A4.27,4.27,0,0,0,720,200a4.12,4.12,0,0,0-1.18-3.13,5.05,5.05,0,0,0-3.59-1.13h-4.66Z" transform="translate(-10 -16.53)" style="fill:#5e7c47"/><path d="M747.72,209.34H732.15a5.64,5.64,0,0,0,1.81,3.93,5.74,5.74,0,0,0,4,1.48,4.93,4.93,0,0,0,4.81-2.85h4.56a9.22,9.22,0,0,1-3.35,4.6,9.82,9.82,0,0,1-6,1.8,10.44,10.44,0,0,1-5.23-1.31,9.43,9.43,0,0,1-3.63-3.7,11.4,11.4,0,0,1-1.31-5.54,11.57,11.57,0,0,1,1.28-5.53,8.94,8.94,0,0,1,3.58-3.68,10.76,10.76,0,0,1,5.31-1.29,10.5,10.5,0,0,1,5.15,1.25,8.92,8.92,0,0,1,3.51,3.54,10.6,10.6,0,0,1,1.26,5.23A12.88,12.88,0,0,1,747.72,209.34Zm-4.25-3.4a4.82,4.82,0,0,0-1.67-3.74,6,6,0,0,0-4-1.4,5.4,5.4,0,0,0-3.74,1.39,5.81,5.81,0,0,0-1.85,3.75Z" transform="translate(-10 -16.53)" style="fill:#5e7c47"/><path d="M759,198.21a8.91,8.91,0,0,1,4.18-1,9.24,9.24,0,0,1,8.32,5,11.4,11.4,0,0,1,1.26,5.44,11.69,11.69,0,0,1-1.26,5.49,9.38,9.38,0,0,1-3.46,3.78,9.1,9.1,0,0,1-4.86,1.35,9,9,0,0,1-4.15-.94,9.45,9.45,0,0,1-3-2.35v12.65h-4.21V197.58h4.21v3A8.54,8.54,0,0,1,759,198.21Zm8.6,5.83a6.06,6.06,0,0,0-2.29-2.34,6.18,6.18,0,0,0-3.06-.79,6,6,0,0,0-3,.81,6.1,6.1,0,0,0-2.3,2.37,7.39,7.39,0,0,0-.87,3.66,7.51,7.51,0,0,0,.87,3.69,6.06,6.06,0,0,0,2.3,2.38,6,6,0,0,0,3,.82,5.92,5.92,0,0,0,3.06-.84,6.16,6.16,0,0,0,2.29-2.42,7.58,7.58,0,0,0,.87-3.7A7.24,7.24,0,0,0,767.61,204Z" transform="translate(-10 -16.53)" style="fill:#5e7c47"/><path d="M795.27,197.58V218h-4.22v-2.41a6.86,6.86,0,0,1-2.61,2,8.26,8.26,0,0,1-3.42.72,9.07,9.07,0,0,1-4.31-1,7.19,7.19,0,0,1-3-3,9.53,9.53,0,0,1-1.09-4.73v-12h4.18v11.36a6,6,0,0,0,1.37,4.2,4.89,4.89,0,0,0,3.74,1.46,4.94,4.94,0,0,0,3.75-1.46,5.87,5.87,0,0,0,1.39-4.2V197.58Zm-5.41-5.48-8.17,4V193l8.17-4.52Z" transform="translate(-10 -16.53)" style="fill:#5e7c47"/><path d="M807.83,198.19a9.06,9.06,0,0,1,4.16-.94,9.39,9.39,0,0,1,4.88,1.29,9,9,0,0,1,3.44,3.68,11.51,11.51,0,0,1,1.26,5.46,11.69,11.69,0,0,1-1.26,5.49,9.36,9.36,0,0,1-3.45,3.78,9.68,9.68,0,0,1-9.07.42,8,8,0,0,1-2.9-2.36v3h-4.22V190.59h4.22v10A8,8,0,0,1,807.83,198.19Zm8.58,5.85a6,6,0,0,0-2.29-2.34,6.18,6.18,0,0,0-3.06-.79,6,6,0,0,0-3,.81,6.1,6.1,0,0,0-2.3,2.37,7.39,7.39,0,0,0-.86,3.66,7.51,7.51,0,0,0,.86,3.69,6.06,6.06,0,0,0,2.3,2.38,6,6,0,0,0,3,.82,5.92,5.92,0,0,0,3.06-.84,6.09,6.09,0,0,0,2.29-2.42,7.58,7.58,0,0,0,.87-3.7A7.24,7.24,0,0,0,816.41,204Z" transform="translate(-10 -16.53)" style="fill:#5e7c47"/><path d="M829.82,190.59V218h-4.21V190.59Z" transform="translate(-10 -16.53)" style="fill:#5e7c47"/><path d="M835.45,194.1a2.7,2.7,0,0,1,1.92-4.62,2.56,2.56,0,0,1,1.89.77,2.77,2.77,0,0,1,0,3.85,2.72,2.72,0,0,1-3.81,0Zm4,3.48V218h-4.21V197.58Z" transform="translate(-10 -16.53)" style="fill:#5e7c47"/><path d="M844.71,202.22a9.1,9.1,0,0,1,3.54-3.68,11.33,11.33,0,0,1,11.3.46,8.66,8.66,0,0,1,3.28,5h-4.55a4.87,4.87,0,0,0-1.78-2.37,5.22,5.22,0,0,0-3.07-.85,5.12,5.12,0,0,0-4.13,1.83,7.76,7.76,0,0,0-1.53,5.12,7.87,7.87,0,0,0,1.53,5.15,5.11,5.11,0,0,0,4.13,1.85,4.69,4.69,0,0,0,4.85-3.22h4.55a9.2,9.2,0,0,1-3.33,4.94,9.84,9.84,0,0,1-6.07,1.83,10.15,10.15,0,0,1-5.18-1.31,9.28,9.28,0,0,1-3.54-3.7,12.7,12.7,0,0,1,0-11.07Z" transform="translate(-10 -16.53)" style="fill:#5e7c47"/><path d="M866.73,202.24a9.35,9.35,0,0,1,3.48-3.68,9.25,9.25,0,0,1,4.86-1.31,8.85,8.85,0,0,1,4.2.94,8.52,8.52,0,0,1,2.87,2.35v-3h4.25V218h-4.25v-3a8.46,8.46,0,0,1-2.92,2.41,9,9,0,0,1-4.22,1,9,9,0,0,1-4.81-1.35,9.52,9.52,0,0,1-3.46-3.78,11.58,11.58,0,0,1-1.28-5.49A11.3,11.3,0,0,1,866.73,202.24Zm14.54,1.85a6.17,6.17,0,0,0-2.27-2.37,6,6,0,0,0-8.35,2.32,7.24,7.24,0,0,0-.87,3.64,7.58,7.58,0,0,0,.87,3.7,6.11,6.11,0,0,0,2.3,2.42,5.8,5.8,0,0,0,3,.84,6,6,0,0,0,3-.82,6.13,6.13,0,0,0,2.27-2.38,7.51,7.51,0,0,0,.87-3.69A7.39,7.39,0,0,0,881.27,204.09Z" transform="translate(-10 -16.53)" style="fill:#5e7c47"/><path d="M916.83,193.82a11.26,11.26,0,0,1,4.77,4.52,13.6,13.6,0,0,1,1.68,6.86A13.3,13.3,0,0,1,921.6,212a11.09,11.09,0,0,1-4.77,4.42,16,16,0,0,1-7.2,1.54h-8.4V192.25h8.4A15.78,15.78,0,0,1,916.83,193.82Zm-.28,18.26A9.39,9.39,0,0,0,919,205.2a9.73,9.73,0,0,0-2.41-7q-2.4-2.52-6.92-2.52h-4.18v18.83h4.18Q914.15,214.52,916.55,212.08Z" transform="translate(-10 -16.53)" style="fill:#5e7c47"/><path d="M930.94,217a9.5,9.5,0,0,1-3.66-3.7,11.19,11.19,0,0,1-1.33-5.54,10.86,10.86,0,0,1,1.37-5.51,9.48,9.48,0,0,1,3.73-3.7,11.51,11.51,0,0,1,10.59,0,9.48,9.48,0,0,1,3.73,3.7,11.67,11.67,0,0,1,0,11,9.85,9.85,0,0,1-3.83,3.72,11.12,11.12,0,0,1-5.35,1.31A10.54,10.54,0,0,1,930.94,217Zm8.27-3.13a6,6,0,0,0,2.32-2.33,8.63,8.63,0,0,0,0-7.53,5.66,5.66,0,0,0-2.26-2.31,6.11,6.11,0,0,0-3-.78,6,6,0,0,0-3,.78,5.49,5.49,0,0,0-2.21,2.31,7.93,7.93,0,0,0-.81,3.75,7.15,7.15,0,0,0,1.68,5.09,5.58,5.58,0,0,0,4.24,1.8A6.24,6.24,0,0,0,939.21,213.86Z" transform="translate(-10 -16.53)" style="fill:#5e7c47"/><path d="M979.76,198.25a7.19,7.19,0,0,1,3,3,9.53,9.53,0,0,1,1.09,4.73v12h-4.18v-11.4a5.93,5.93,0,0,0-1.37-4.2,4.88,4.88,0,0,0-3.73-1.46,5,5,0,0,0-3.76,1.46,5.85,5.85,0,0,0-1.39,4.2V218h-4.18v-11.4a5.93,5.93,0,0,0-1.37-4.2,4.89,4.89,0,0,0-3.74-1.46,4.94,4.94,0,0,0-3.75,1.46,5.85,5.85,0,0,0-1.39,4.2V218h-4.22V197.58H955v2.33a7,7,0,0,1,2.63-2,8.28,8.28,0,0,1,3.4-.7,9.07,9.07,0,0,1,4.37,1,7.08,7.08,0,0,1,3,3,6.82,6.82,0,0,1,2.89-2.94,8.47,8.47,0,0,1,4.21-1.09A9.07,9.07,0,0,1,979.76,198.25Z" transform="translate(-10 -16.53)" style="fill:#5e7c47"/><path d="M989.29,194.1a2.7,2.7,0,0,1,1.92-4.62,2.55,2.55,0,0,1,1.89.77,2.77,2.77,0,0,1,0,3.85,2.56,2.56,0,0,1-1.89.78A2.61,2.61,0,0,1,989.29,194.1Zm4,3.48V218h-4.22V197.58Z" transform="translate(-10 -16.53)" style="fill:#5e7c47"/><path d="M1013.29,198.25a7,7,0,0,1,3,3,9.64,9.64,0,0,1,1.08,4.73v12h-4.18v-11.4a5.93,5.93,0,0,0-1.37-4.2,4.9,4.9,0,0,0-3.74-1.46,5,5,0,0,0-3.76,1.46,5.89,5.89,0,0,0-1.38,4.2V218h-4.22V197.58h4.22v2.33a7,7,0,0,1,2.64-2,8.47,8.47,0,0,1,3.42-.7A9.14,9.14,0,0,1,1013.29,198.25Z" transform="translate(-10 -16.53)" style="fill:#5e7c47"/><path d="M1022.78,194.1a2.77,2.77,0,0,1,0-3.85,2.74,2.74,0,0,1,3.81,0,2.79,2.79,0,0,1,0,3.85,2.72,2.72,0,0,1-3.81,0Zm4,3.48V218h-4.22V197.58Z" transform="translate(-10 -16.53)" style="fill:#5e7c47"/><path d="M1032,202.22a9,9,0,0,1,3.54-3.68,11.33,11.33,0,0,1,11.3.46,8.6,8.6,0,0,1,3.27,5h-4.55a4.85,4.85,0,0,0-1.77-2.37,5.24,5.24,0,0,0-3.07-.85,5.11,5.11,0,0,0-4.13,1.83,7.76,7.76,0,0,0-1.53,5.12,7.87,7.87,0,0,0,1.53,5.15,5.09,5.09,0,0,0,4.13,1.85,4.68,4.68,0,0,0,4.84-3.22h4.55a9.09,9.09,0,0,1-3.33,4.94,9.81,9.81,0,0,1-6.06,1.83,10.15,10.15,0,0,1-5.18-1.31,9.21,9.21,0,0,1-3.54-3.7,12.7,12.7,0,0,1,0-11.07Z" transform="translate(-10 -16.53)" style="fill:#5e7c47"/><path d="M1054.09,202.24a9.42,9.42,0,0,1,3.48-3.68,9.29,9.29,0,0,1,4.87-1.31,8.91,8.91,0,0,1,4.2.94,8.48,8.48,0,0,1,2.86,2.35v-3h4.26V218h-4.26v-3a8.28,8.28,0,0,1-2.92,2.41,9.47,9.47,0,0,1-9-.39,9.67,9.67,0,0,1-3.46-3.78,11.58,11.58,0,0,1-1.27-5.49A11.29,11.29,0,0,1,1054.09,202.24Zm14.55,1.85a6.13,6.13,0,0,0-2.28-2.37,6,6,0,0,0-3-.81A5.93,5.93,0,0,0,1058,204a7.24,7.24,0,0,0-.87,3.64,7.58,7.58,0,0,0,.87,3.7,6.09,6.09,0,0,0,2.29,2.42,5.86,5.86,0,0,0,3,.84,6,6,0,0,0,3-.82,6.09,6.09,0,0,0,2.28-2.38,7.62,7.62,0,0,0,.86-3.69A7.5,7.5,0,0,0,1068.64,204.09Z" transform="translate(-10 -16.53)" style="fill:#5e7c47"/><path d="M1093.76,198.25a7.09,7.09,0,0,1,3,3,9.75,9.75,0,0,1,1.07,4.73v12h-4.18v-11.4a5.93,5.93,0,0,0-1.37-4.2,4.89,4.89,0,0,0-3.74-1.46,4.94,4.94,0,0,0-3.75,1.46,5.85,5.85,0,0,0-1.39,4.2V218h-4.22V197.58h4.22v2.33a6.94,6.94,0,0,1,2.65-2,8.41,8.41,0,0,1,3.42-.7A9.1,9.1,0,0,1,1093.76,198.25Z" transform="translate(-10 -16.53)" style="fill:#5e7c47"/><path d="M1102.9,202.24a9.35,9.35,0,0,1,3.48-3.68,9.23,9.23,0,0,1,4.86-1.31,8.91,8.91,0,0,1,4.2.94,8.52,8.52,0,0,1,2.87,2.35v-3h4.25V218h-4.25v-3a8.4,8.4,0,0,1-2.93,2.41,9.45,9.45,0,0,1-9-.39,9.52,9.52,0,0,1-3.46-3.78,11.58,11.58,0,0,1-1.28-5.49A11.3,11.3,0,0,1,1102.9,202.24Zm14.54,1.85a6.13,6.13,0,0,0-2.28-2.37,6,6,0,0,0-3-.81,5.93,5.93,0,0,0-5.31,3.13,7.24,7.24,0,0,0-.87,3.64,7.58,7.58,0,0,0,.87,3.7,6.09,6.09,0,0,0,2.29,2.42,5.86,5.86,0,0,0,3,.84,6,6,0,0,0,3-.82,6.09,6.09,0,0,0,2.28-2.38,7.51,7.51,0,0,0,.87-3.69A7.39,7.39,0,0,0,1117.44,204.09Z" transform="translate(-10 -16.53)" style="fill:#5e7c47"/></svg>